<svg width="37" height="36" viewBox="0 0 37 36" fill="none" xmlns="http://www.w3.org/2000/svg">
<path d="M0.0426447 0.92887L12.4066 34.6333C12.5534 35.0336 12.8221 35.3796 13.1761 35.6242C13.53 35.8688 13.952 36 14.3845 36H23.3293C23.8157 36 24.2498 35.6997 24.4145 35.2494L36.9576 0.936835C37.1332 0.456512 36.7389 -0.0395994 36.223 0.0124581L26.2687 1.01634C25.9399 1.04949 25.6275 1.17432 25.3683 1.37614C25.109 1.57797 24.9137 1.84842 24.8053 2.15571L18.5591 19.8548L12.2704 2.07677C12.161 1.76763 11.9637 1.4959 11.702 1.2939C11.4403 1.09189 11.1251 0.968105 10.794 0.937262L0.771733 0.00321293C0.257274 -0.0446487 -0.132816 0.450609 0.0426447 0.92887Z" fill="url(#paint0_linear_112_18)"/>
<defs>
<linearGradient id="paint0_linear_112_18" x1="18.5" y1="0" x2="18.5" y2="36" gradientUnits="userSpaceOnUse">
<stop stop-color="#4F2B59"/>
<stop offset="1" stop-color="#09002C"/>
</linearGradient>
</defs>
</svg>
